<svg width="28" height="28" viewBox="0 0 28 28" fill="none" xmlns="http://www.w3.org/2000/svg">
<g id="close-bold-svgrepo-com 1">
<path id="Vector" d="M5.33745 5.33745C5.66562 5.00938 6.11066 4.82507 6.5747 4.82507C7.03874 4.82507 7.48378 5.00938 7.81195 5.33745L14 11.5254L20.188 5.33745C20.518 5.01867 20.9601 4.84228 21.4189 4.84627C21.8777 4.85026 22.3167 5.0343 22.6411 5.35877C22.9656 5.68323 23.1496 6.12215 23.1536 6.581C23.1576 7.03984 22.9812 7.4819 22.6625 7.81195L16.4744 14L22.6625 20.188C22.9812 20.518 23.1576 20.9601 23.1536 21.4189C23.1496 21.8777 22.9656 22.3167 22.6411 22.6411C22.3167 22.9656 21.8777 23.1496 21.4189 23.1536C20.9601 23.1576 20.518 22.9812 20.188 22.6625L14 16.4744L7.81195 22.6625C7.4819 22.9812 7.03984 23.1576 6.581 23.1536C6.12215 23.1496 5.68323 22.9656 5.35877 22.6411C5.0343 22.3167 4.85026 21.8777 4.84627 21.4189C4.84228 20.9601 5.01867 20.518 5.33745 20.188L11.5254 14L5.33745 7.81195C5.00938 7.48378 4.82507 7.03874 4.82507 6.5747C4.82507 6.11066 5.00938 5.66562 5.33745 5.33745Z" fill="#D1D1D1"/>
</g>
</svg>
