<svg width="24" height="25" viewBox="0 0 24 25" fill="none" xmlns="http://www.w3.org/2000/svg">
<g id="print-svgrepo-com 1">
<path id="Vector (Stroke)" fill-rule="evenodd" clip-rule="evenodd" d="M4.5 23C4.5 23.4142 4.83579 23.75 5.25 23.75H18.75C19.1642 23.75 19.5 23.4142 19.5 23V18.5H22.5C22.9142 18.5 23.25 18.1642 23.25 17.75V5.75C23.25 5.33579 22.9142 5 22.5 5H19.5V2C19.5 1.58579 19.1642 1.25 18.75 1.25H5.25C4.83579 1.25 4.5 1.58579 4.5 2V5H1.5C1.08579 5 0.75 5.33579 0.75 5.75V17.75C0.75 18.1642 1.08579 18.5 1.5 18.5H4.5V23ZM2.25 17V6.5H4.5V10.25C4.5 10.6642 4.83579 11 5.25 11H18.75C19.1642 11 19.5 10.6642 19.5 10.25V6.5H21.75V17H2.25ZM18 18.5H6V22.25H18V18.5ZM18 9.5H6V2.75H18V9.5ZM15.75 14C15.75 14.4142 16.0858 14.75 16.5 14.75H18.75C19.1642 14.75 19.5 14.4142 19.5 14C19.5 13.5858 19.1642 13.25 18.75 13.25H16.5C16.0858 13.25 15.75 13.5858 15.75 14Z" fill="white"/>
</g>
</svg>
