<svg width="28" height="28" viewBox="0 0 28 28" fill="none" xmlns="http://www.w3.org/2000/svg">
<g id="settings-svgrepo-com 1">
<path id="Vector" fill-rule="evenodd" clip-rule="evenodd" d="M16.6586 2.51099C16.2266 2.33337 15.6788 2.33337 14.5833 2.33337C13.4878 2.33337 12.9401 2.33337 12.5081 2.51099C11.932 2.74781 11.4743 3.20205 11.2356 3.77378C11.1267 4.03477 11.0841 4.33829 11.0674 4.78103C11.0429 5.43167 10.7067 6.03391 10.1385 6.35946C9.57037 6.68499 8.87674 6.67284 8.29673 6.36859C7.90204 6.16156 7.61587 6.04643 7.33365 6.00956C6.71544 5.92878 6.09021 6.09505 5.59552 6.47177C5.22449 6.75432 4.95062 7.22509 4.40288 8.16663C3.85514 9.10817 3.58128 9.57893 3.52024 10.0391C3.43884 10.6526 3.60637 11.2731 3.98597 11.7641C4.15923 11.9882 4.40273 12.1765 4.78065 12.4122C5.33623 12.7587 5.6937 13.3489 5.69367 14C5.69363 14.6512 5.33617 15.2413 4.78065 15.5876C4.40267 15.8234 4.15913 16.0118 3.98586 16.236C3.60626 16.7269 3.43874 17.3473 3.52012 17.9609C3.58116 18.421 3.85504 18.8919 4.40276 19.8334C4.9505 20.7749 5.22438 21.2457 5.5954 21.5282C6.09009 21.9049 6.71532 22.0712 7.33354 21.9904C7.61574 21.9536 7.90189 21.8384 8.29655 21.6314C8.8766 21.3272 9.57028 21.315 10.1385 21.6405C10.7067 21.9662 11.0429 22.5684 11.0674 23.2192C11.0841 23.6618 11.1267 23.9654 11.2356 24.2263C11.4743 24.798 11.932 25.2523 12.5081 25.4891C12.9401 25.6667 13.4878 25.6667 14.5833 25.6667C15.6788 25.6667 16.2266 25.6667 16.6586 25.4891C17.2347 25.2523 17.6924 24.798 17.931 24.2263C18.0399 23.9654 18.0826 23.6618 18.0993 23.219C18.1238 22.5684 18.4599 21.9662 19.0281 21.6405C19.5963 21.3149 20.29 21.3272 20.87 21.6314C21.2647 21.8384 21.5508 21.9534 21.833 21.9903C22.4512 22.0712 23.0764 21.9049 23.5711 21.5282C23.9422 21.2456 24.216 20.7749 24.7638 19.8333C25.3115 18.8918 25.5853 18.421 25.6465 17.9609C25.7278 17.3473 25.5603 16.7268 25.1807 16.2358C25.0074 16.0117 24.7639 15.8233 24.3859 15.5876C23.8304 15.2413 23.473 14.651 23.473 13.9999C23.473 13.3488 23.8304 12.7588 24.3859 12.4124C24.764 12.1767 25.0075 11.9884 25.1809 11.7641C25.5604 11.2732 25.7279 10.6527 25.6466 10.0392C25.5855 9.57902 25.3116 9.10824 24.7639 8.16671C24.2161 7.22517 23.9423 6.7544 23.5712 6.47186C23.0765 6.09513 22.4513 5.92887 21.8331 6.00965C21.5509 6.04651 21.2647 6.16163 20.8701 6.36864C20.2901 6.6729 19.5964 6.68506 19.0282 6.35949C18.46 6.03394 18.1238 5.43164 18.0992 4.78097C18.0825 4.33827 18.0399 4.03476 17.931 3.77378C17.6924 3.20205 17.2347 2.74781 16.6586 2.51099ZM14.5833 17.5C16.5311 17.5 18.1099 15.9331 18.1099 14C18.1099 12.067 16.5311 10.5 14.5833 10.5C12.6356 10.5 11.0567 12.067 11.0567 14C11.0567 15.9331 12.6356 17.5 14.5833 17.5Z" fill="#D1D1D1"/>
</g>
</svg>
