<svg width="28" height="28" viewBox="0 0 28 28" fill="none" xmlns="http://www.w3.org/2000/svg">
<g id="user-alt-svgrepo-com 1">
<path id="Vector" d="M14 14C11.4226 14 9.33329 11.9106 9.33329 9.33329C9.33329 6.75596 11.4226 4.66663 14 4.66663C16.5773 4.66663 18.6666 6.75596 18.6666 9.33329C18.6666 11.9106 16.5773 14 14 14Z" fill="#D1D1D1"/>
<path id="Vector_2" d="M21.7725 20.2073C21.0012 16.948 17.7663 15.1666 14.417 15.1666H13.583C10.2337 15.1666 6.99884 16.948 6.22756 20.2073C6.07834 20.8379 5.95969 21.4979 5.89296 22.1685C5.82914 22.8097 6.35566 23.3333 7.00001 23.3333H21C21.6443 23.3333 22.1709 22.8097 22.1071 22.1685C22.0403 21.4979 21.9217 20.8379 21.7725 20.2073Z" fill="#D1D1D1"/>
</g>
</svg>
